<svg xmlns="http://www.w3.org/2000/svg"  viewBox="0 0 64 64" width="512px" height="512px"><path fill="#72caaf" d="M52.83,3.5c-2.26-1-10-4-15.6-1.6a9.8,9.8,0,0,0-1.07.54,7.92,7.92,0,0,0-4,5.41,7.92,7.92,0,0,0-4-5.41,9.8,9.8,0,0,0-1.07-.54c-5.6-2.38-13.35.62-15.6,1.6a.76.76,0,0,0-.41,1c.85,2.32,4,10,9.64,12.42a9.8,9.8,0,0,0,1.13.4c5.44,1.56,15.2,1.56,20.64,0a9.8,9.8,0,0,0,1.13-.4c5.6-2.38,8.79-10.11,9.64-12.42A.76.76,0,0,0,52.83,3.5Z"/><path fill="#5dbc9d" d="M15 6.45a.76.76 0 0 1 .41-1c2.05-.89 8.64-3.44 14-2.11a9.31 9.31 0 0 0-1.35-1 9.8 9.8 0 0 0-1.07-.54c-5.6-2.38-13.35.62-15.6 1.6a.76.76 0 0 0-.41 1c.85 2.32 4 10 9.64 12.42a9.8 9.8 0 0 0 1.13.4l.4.1C18.15 14.18 15.76 8.41 15 6.45zM52.83 3.5c-2.26-1-10-4-15.6-1.6a9.8 9.8 0 0 0-1.07.54 9.31 9.31 0 0 0-1.35 1c5.39-1.33 12 1.21 14 2.11a.76.76 0 0 1 .41 1c-.72 2-3.1 7.73-7.18 10.93l.4-.1a9.8 9.8 0 0 0 1.13-.4c5.6-2.38 8.79-10.11 9.64-12.42A.76.76 0 0 0 52.83 3.5z"/><path fill="#ed7899" d="M53,27.79a6.81,6.81,0,0,0-.87-.65s.71-7.49-5-9.89a3.1,3.1,0,0,1-1-.66c-1-1-3.71-3.49-6.18-3.53H39.7c-.35,0-.71,0-1.07,0a3.88,3.88,0,0,1-1.57-.2,15.47,15.47,0,0,0-10.11,0,3.89,3.89,0,0,1-1.55.2c-.34,0-.67,0-1,0h-.32c-2.45,0-5.33,2.2-6.11,3.19a3.93,3.93,0,0,1-1.23,1c-5.87,3.17-4.88,9.94-4.88,9.94a6.83,6.83,0,0,0-.89.67,8.45,8.45,0,0,0-3.19,6,9,9,0,0,0,.84,5.27v0c.07.15.16.3.24.45s.2.35.31.51.38.57.6.86a3.23,3.23,0,0,1,.56,1.24,24,24,0,0,0,.87,2.74,3.83,3.83,0,0,1,.2,1,10.5,10.5,0,0,0,1.21,4,4.1,4.1,0,0,0,.32.51,9,9,0,0,0,4.55,3.41A3.64,3.64,0,0,0,18,54a22.61,22.61,0,0,0,5.66,3.32l1.13.79a10.24,10.24,0,0,0,7.15,2.93h.13a10.24,10.24,0,0,0,7.15-2.93l1.13-.79A22.61,22.61,0,0,0,46,54a3.64,3.64,0,0,0,.52-.19,9,9,0,0,0,4.55-3.41,4.1,4.1,0,0,0,.32-.51,10.5,10.5,0,0,0,1.21-4,3.83,3.83,0,0,1,.2-1,20.68,20.68,0,0,0,1-3.5c.23-.26.42-.52.61-.78a7.18,7.18,0,0,0,1.18-2.08,9,9,0,0,0,.62-4.61A8.48,8.48,0,0,0,53,27.79Z"/><path fill="#e0678f" d="M53.72 41.94c-2-.54-6.59-1.06-10.16 3.94s-1.66 10.32 3 7.66 5.62-4.05 6.21-6.26A50.64 50.64 0 0 0 53.72 41.94zM12 42.56c4-3.14 13.68 6.31 9.49 11.19S8.46 45.31 12 42.56zM24.58 57.25c0 6.25 15.23 3.56 15.23.25S24.58 53.75 24.58 57.25zM13.34 33.56c0 5.53-2.9 7.84-2.9 7.84S8 39.42 8 34.24a7.08 7.08 0 0 1 4.28-6.74zM50.93 33.56c0 5.53 2.9 7.84 2.9 7.84s2.44-2 2.44-7.16A7.08 7.08 0 0 0 52 27.5z"/><path fill="#f283a5" d="M25.64 44.74c0 9.11 12.75 8.11 12.75.53S25.64 36.42 25.64 44.74zM25.66 19.19c0 3.86 12.64 4.94 12.64.36S25.66 14 25.66 19.19zM23.03 23.84A6.13 7.27 0 1 0 23.03 38.379999999999995 6.13 7.27 0 1 0 23.03 23.84zM40.81 23.96A6.13 7.27 0 1 0 40.81 38.5 6.13 7.27 0 1 0 40.81 23.96z"/><path fill="#8d6c9f" d="M39.86,10.35a1,1,0,0,0,.4-.08l1.36-.56,2.84-1.13a1,1,0,1,0-.74-1.86L40.89,7.84l-1.42.59a1,1,0,0,0,.4,1.92Z"/><path fill="#8d6c9f" d="M56.55,38.93c0-.11.07-.22.11-.32s.08-.23.12-.34a9.83,9.83,0,0,0,.48-4.07c0-.1,0-.19,0-.29A9.46,9.46,0,0,0,53.56,27l-.4-.32c.05-2-.25-8-5.61-10.31a2,2,0,0,1-.58-.4c4.11-3.41,6.48-9.17,7.2-11.13a1.87,1.87,0,0,0,.11-.61,1.76,1.76,0,0,0-1.06-1.61c-2.34-1-10.43-4.14-16.39-1.6a10.79,10.79,0,0,0-1.18.59A9.5,9.5,0,0,0,32.14,5a9.55,9.55,0,0,0-3.5-3.44A11.92,11.92,0,0,0,27.45,1c-6-2.54-14,.58-16.39,1.6a1.76,1.76,0,0,0-1,2.22c.71,1.94,3,7.51,7,10.94a2.88,2.88,0,0,1-.81.59c-5.3,2.86-5.53,8.43-5.45,10.32L10.4,27a9.44,9.44,0,0,0-3.64,6.9c0,.16,0,.31,0,.47A10.09,10.09,0,0,0,7.52,39c.05.13.1.27.16.4l.05.13c.08.16.17.33.26.48H8c.09.16.18.31.27.46l.06.11c.2.31.42.62.65.93a2.21,2.21,0,0,1,.38.86,23.92,23.92,0,0,0,.9,2.85,2.75,2.75,0,0,1,.15.75v0c0,.26.06.52.1.78A11,11,0,0,0,11,48.66h0a12.22,12.22,0,0,0,.49,1.2l.12.26c0,.08.08.17.12.25l.08.12.13.25.15.19,0,.07c.18.24.36.46.54.67l.2.23c.25.28.5.53.75.76l.16.14a9.29,9.29,0,0,0,3.35,1.95,3.77,3.77,0,0,0,.41.16,23.91,23.91,0,0,0,5.65,3.31l.94.66,0,0,0,0,.23.21.28.25.42.32.28.21.43.28.43.27.35.19.63.32.27.11c.26.11.53.22.81.32l.24.07c.29.1.59.19.9.26l.29.06c.29.06.58.11.89.15l.44,0c.2,0,.39,0,.6,0h.65c.22,0,.43,0,.64,0l.4,0c.26,0,.52-.08.78-.13l.43-.08c.23-.06.45-.13.67-.2l.46-.14c.21-.08.41-.16.61-.25l.44-.18a12.42,12.42,0,0,0,1.8-1h0c.25-.18.49-.35.69-.53l.17-.15.34-.3,0,0,0,0,.94-.66a23.91,23.91,0,0,0,5.65-3.31,3.77,3.77,0,0,0,.41-.16,9.9,9.9,0,0,0,5-3.76,3.73,3.73,0,0,0,.4-.63A11.38,11.38,0,0,0,53.59,46a3,3,0,0,1,.16-.78,21.57,21.57,0,0,0,1-3.35c.17-.2.31-.4.44-.58l0,0a8.08,8.08,0,0,0,1.27-2.19Zm-1.86-.74a6.62,6.62,0,0,1-1,1.74,16.54,16.54,0,0,1-1.61-6.41c-.27-2.85,0-4.42.25-5h0l.05,0a7.53,7.53,0,0,1,2.85,5.47c0,.12,0,.23,0,.35a9.76,9.76,0,0,1-.38,3.19C54.82,37.8,54.77,38,54.69,38.19ZM12.07,4.32c2.39-1,9.53-3.66,14.6-1.5a9.51,9.51,0,0,1,1,.48A6.89,6.89,0,0,1,31.16,8a1,1,0,0,0,2,0A6.9,6.9,0,0,1,36.65,3.3a9.51,9.51,0,0,1,1-.48c5.07-2.16,12.21.49,14.61,1.5-.77,2.06-3,7.35-6.74,10.27-1.6-1.32-3.55-2.5-5.43-2.53H39.7c-.38,0-.76,0-1.15,0A2.71,2.71,0,0,1,37.39,12a16.6,16.6,0,0,0-7-.82,29.77,29.77,0,0,0-10-4.48,1,1,0,0,0-.43,2,29.63,29.63,0,0,1,7.58,3.06c-.3.08-.61.18-.91.28a2.88,2.88,0,0,1-1.16.15c-.36,0-.72,0-1,0h-.37a10.13,10.13,0,0,0-5.53,2.31C15,11.42,12.82,6.33,12.07,4.32ZM11.9,33.51a16.43,16.43,0,0,1-1.61,6.4l-.1-.14L10,39.5c-.09-.13-.17-.28-.26-.44a4.14,4.14,0,0,1-.22-.42c-.11-.23-.19-.47-.28-.7a9.66,9.66,0,0,1-.5-3.4c0-.21,0-.41,0-.63a7.5,7.5,0,0,1,2.84-5.34l0,0C11.9,29.1,12.17,30.67,11.9,33.51Zm2,9.33H14c1.47,0,3.51,1.27,5.21,3.25a8.65,8.65,0,0,1,1.94,5.68,1.74,1.74,0,0,1-.39,1,3.8,3.8,0,0,1-2.79.12l0,0-.11,0a8,8,0,0,1-4-3.05,2.87,2.87,0,0,1-.18-.29c-.15-.28-.28-.56-.4-.83s-.17-.43-.25-.64-.12-.34-.17-.5-.09-.36-.13-.54-.07-.32-.1-.47,0-.28-.06-.42A3.92,3.92,0,0,1,13,43.08,1.87,1.87,0,0,1,13.91,42.85ZM38.48,57.46c-.1.11-.23.22-.36.34a10.14,10.14,0,0,1-3.57,1.93l-.17,0-.64.15-.46.08-.43,0-.55,0h-.57q-.33,0-.65,0l-.3,0q-.37,0-.74-.13l-.3-.07-.55-.16-.5-.18-.3-.12a10,10,0,0,1-2.53-1.56c-.12-.11-.25-.22-.35-.33h0a1.94,1.94,0,0,1-.25-.32c.51-.66,3.7-1.66,6.6-1.66H32c3-.06,6.26,1,6.72,1.66A2,2,0,0,1,38.48,57.46Zm13.38-12.9a4.68,4.68,0,0,0-.26,1.27,9.73,9.73,0,0,1-1.1,3.62,3,3,0,0,1-.24.38,8,8,0,0,1-4,3.05l-.11,0a2.34,2.34,0,0,1-.36.13l-.12.06a1,1,0,0,0-.34,0,3.4,3.4,0,0,1-1.93-.21,1.64,1.64,0,0,1-.48-1.1,8.65,8.65,0,0,1,1.94-5.68,1,1,0,0,0-1.54-1.28A10.56,10.56,0,0,0,40.9,52a3.48,3.48,0,0,0,1.35,2.52,3.85,3.85,0,0,0,.79.34,19,19,0,0,1-2.54,1.32,2.36,2.36,0,0,0-.35-.46c-1.5-1.55-5.63-2.25-8-2.25h-.22c-2.4,0-6.53.7-8,2.25a2.39,2.39,0,0,0-.35.46,19.06,19.06,0,0,1-2.57-1.33,4,4,0,0,0,.89-.38A3.47,3.47,0,0,0,23.1,52a10.57,10.57,0,0,0-2.4-7.2c-2.17-2.52-4.71-4-6.83-4a3.86,3.86,0,0,0-2,.55l-.09.06a3,3,0,0,0-.51.51v0c0-.06,0-.11-.06-.17l.2-.15c2.12-1.88,3.22-10.67,2.12-13.64a2.65,2.65,0,0,0-.73-1.13c-.08-.94-.35-6.19,4.38-8.75a4.87,4.87,0,0,0,1.46-1.15l.07-.07a7.94,7.94,0,0,1,1.52-1.31,7.77,7.77,0,0,1,3.84-1.5h.14c.3,0,.7,0,1.08,0a5,5,0,0,0,2-.24,15,15,0,0,1,2.5-.62,14.31,14.31,0,0,1,7,.62,4.79,4.79,0,0,0,2,.25c.33,0,.66,0,1,0H40a6.8,6.8,0,0,1,3.7,1.66,19.13,19.13,0,0,1,1.61,1.39l.19.19a3.76,3.76,0,0,0,1.26.87c4.47,1.9,4.43,7.59,4.38,8.68A2.68,2.68,0,0,0,50.44,28c-1.1,3,0,11.79,2.12,13.67l.16.12A22.74,22.74,0,0,1,51.86,44.56Z"/><path fill="#8d6c9f" d="M32 23.89h.11c4.15 0 7.4-2.08 7.38-4.62 0-2.11-3.52-4.78-7.44-4.78s-7.43 2.67-7.44 4.78C24.54 21.81 27.79 23.84 32 23.89zm0-7.4c3.12 0 5.44 2.14 5.44 2.79 0 1.06-2 2.57-5.48 2.61s-5.41-1.54-5.41-2.61C26.56 18.63 28.88 16.49 32 16.49zM30.07 33.41a8.23 8.23 0 0 0-.35-6.26 6.85 6.85 0 0 0-4-3.51 6.68 6.68 0 0 0-2.18-.34 7.84 7.84 0 0 0-7.19 5.51 8.23 8.23 0 0 0 .35 6.26 6.84 6.84 0 0 0 4 3.51 6.64 6.64 0 0 0 2.12.35A7.88 7.88 0 0 0 30.07 33.41zm-8.73 3.27a4.85 4.85 0 0 1-2.8-2.5 6.22 6.22 0 0 1-.25-4.73A5.84 5.84 0 0 1 23.6 25.3h0a4.67 4.67 0 0 1 1.49.24 4.86 4.86 0 0 1 2.8 2.5 6.22 6.22 0 0 1 .25 4.73C27.13 35.83 24.06 37.59 21.33 36.67zM47.23 28.8A7.84 7.84 0 0 0 40 23.3h0a6.72 6.72 0 0 0-2.18.34 6.84 6.84 0 0 0-4 3.51 8.23 8.23 0 0 0-.35 6.26 7.88 7.88 0 0 0 7.25 5.51 6.64 6.64 0 0 0 2.12-.35 6.84 6.84 0 0 0 4-3.51A8.23 8.23 0 0 0 47.23 28.8zm-2.14 5.37a4.85 4.85 0 0 1-2.8 2.5c-2.73.92-5.8-.84-6.84-3.91A6.22 6.22 0 0 1 35.7 28a4.86 4.86 0 0 1 2.8-2.5A4.71 4.71 0 0 1 40 25.3h0a5.84 5.84 0 0 1 5.31 4.15A6.22 6.22 0 0 1 45.08 34.18zM32 38a7.62 7.62 0 0 0-5.14 1.93 6.72 6.72 0 0 0-.05 10 7.66 7.66 0 0 0 10.39 0 6.71 6.71 0 0 0-.05-10A7.62 7.62 0 0 0 32 38zm3.84 10.5a5.67 5.67 0 0 1-7.67 0A4.82 4.82 0 0 1 26.58 45a4.88 4.88 0 0 1 1.62-3.57 5.82 5.82 0 0 1 7.6 0A4.89 4.89 0 0 1 37.42 45 4.82 4.82 0 0 1 35.84 48.5zM47.58 25.24a1 1 0 1 0 1.16-1.63 43.1 43.1 0 0 1-6.13-5.38 1 1 0 0 0-1.48 1.35A45.39 45.39 0 0 0 47.58 25.24zM22.77 19.55A1 1 0 0 0 21.3 18.2a42.9 42.9 0 0 1-6.07 5.28 1 1 0 0 0 1.15 1.64A45.24 45.24 0 0 0 22.77 19.55zM49.9 40.85a6.53 6.53 0 0 0-2.86.85A1 1 0 0 0 48 43.46a4.63 4.63 0 0 1 2-.61 1 1 0 0 0 1-1A1 1 0 0 0 49.9 40.85zM2.67 27.66l1.9 1a1 1 0 0 0 1-1.76l-1.9-1a1 1 0 0 0-1 1.76zM5 38.13a1 1 0 0 0-1.24-.67l-2.22.66A1 1 0 0 0 2.14 40l2.22-.66A1 1 0 0 0 5 38.13zM6 42.52L4.24 44a1 1 0 1 0 1.27 1.54L7.3 44.06A1 1 0 0 0 6 42.52zM7.67 24.32A1 1 0 0 0 9.21 23L7.84 21.38a1 1 0 0 0-1.54 1.27zM3.47 34.15h.1a1 1 0 0 0 .09-2l-2.3-.22a1 1 0 1 0-.19 2z"/></svg>