<svg xmlns="http://www.w3.org/2000/svg" xmlns:xlink="http://www.w3.org/1999/xlink" fill="#fff" fill-rule="evenodd" stroke="#000" stroke-linecap="round" stroke-linejoin="round" viewBox="0 0 65 62"><use x=".5" y=".5" xlink:href="#G"/><defs><linearGradient id="A" x1="-82.66%" x2="103.77%" y1="-92.82%" y2="106.04%"><stop offset="0%" stop-color="#f9a03c"/><stop offset="100%" stop-color="#f7974e"/></linearGradient><linearGradient id="B" x1="-258.92%" x2="97.62%" y1="-249.06%" y2="98.77%"><stop offset="0%" stop-color="#f9a03c"/><stop offset="100%" stop-color="#f7974e"/></linearGradient><linearGradient id="C" x1="-223.16%" x2="94.03%" y1="-261.97%" y2="101.69%"><stop offset="0%" stop-color="#f9a03c"/><stop offset="100%" stop-color="#f7974e"/></linearGradient><linearGradient id="D" x1="11.34%" x2="82.5%" y1="-1.82%" y2="92.11%"><stop offset="0%" stop-color="#f26d58"/><stop offset="100%" stop-color="#f9a03c"/></linearGradient><linearGradient id="E" x1="15.84%" x2="120.13%" y1="3.86%" y2="72.38%"><stop offset="0%" stop-color="#b84e51"/><stop offset="100%" stop-color="#f68e48"/></linearGradient><linearGradient id="F" x1="46.98%" x2="51.88%" y1="23.48%" y2="147.4%"><stop offset="0%" stop-color="#f9a03c"/><stop offset="100%" stop-color="#f7974e"/></linearGradient></defs><symbol id="G" overflow="visible"><g fill-rule="nonzero" stroke="none"><path fill="url(#A)" d="M63.901 43.92l.065-.843c.019-.335-20.147-19.469-20.147-19.469h-.48S63.78 45.169 63.903 43.92z"/><path fill="url(#B)" d="M20.875 37.281l-.081.176-.088.184c-.643 1.34 9 10.767 9.775 9.622l.106-.155.117-.175c.62-.942-9.555-10.261-9.83-9.649z"/><path fill="url(#C)" d="M34.501 50.537c-.025.06-.221.388-.399.561-.03.06 9.413 9.425 9.413 9.425h.85c.001 0-8.864-9.591-9.865-9.986z"/><path fill="url(#D)" d="M63.98 42.906c-.442 9.79-8.541 17.618-18.436 17.618h-1.338l-9.882-9.735c.813-1.146 1.569-2.334 2.241-3.572h8.978a5.16 5.16 0 0 0 5.15-5.15 5.16 5.16 0 0 0-5.15-5.15h-5.313c.405-2.14.626-4.346.626-6.604a35.33 35.33 0 0 0-.645-6.704h3.3l20.407 20.11c.024-.27.044-.54.058-.811zM5.369 0H0v13.308h5.369c9.376 0 17.006 7.627 17.006 17.004.002 2.469-.538 4.908-1.58 7.146l9.794 9.653a30.13 30.13 0 0 0 5.096-16.797C35.684 13.598 22.084 0 5.369 0z"/><path fill="url(#E)" d="M45.544 0H23.805a35.73 35.73 0 0 1 12.702 13.308h9.037a5.16 5.16 0 0 1 5.15 5.151c0 2.841-2.311 5.15-5.151 5.15h-2.031l20.407 20.11.078-1.652c0-4.486-1.61-8.602-4.283-11.805 2.673-3.202 4.283-7.317 4.283-11.803C64.001 8.281 55.722 0 45.544 0z"/><path fill="url(#F)" d="M44.206 60.524H23.96c4.075-2.517 7.598-5.839 10.364-9.735zM30.588 47.108l-9.793-9.653c-2.706 5.814-8.601 9.859-15.426 9.859H0V60.62h5.369c10.503 0 19.781-5.374 25.22-13.514z"/></g></symbol></svg>